<!-- Generated by IcoMoon.io -->
<svg version="1.1" xmlns="http://www.w3.org/2000/svg" width="512" height="512" viewBox="0 0 512 512">
<title></title>
<g id="icomoon-ignore">
</g>
<path fill="#000" d="M94.32 146.368c13.568 143.344 128 257.744 271.312 271.248-30.56 19.376-66.432 30.368-104 30.368-109.008 0.016-197.632-88.608-197.632-197.648 0-37.552 11.008-73.392 30.32-103.968zM189.504 0c-109.184 31.504-189.504 131.024-189.504 250.336 0 144.544 117.12 261.664 261.632 261.664 119.312 0 218.88-80.368 250.368-189.504-34.88 20.128-74.752 32.496-117.872 32.496-131.008 0-237.12-106.224-237.12-237.152-0.016-43.12 12.368-82.992 32.496-117.84v0z"></path>
</svg>
